<?xml version="1.0" standalone="no"?>
<!DOCTYPE svg PUBLIC "-//W3C//DTD SVG 20010904//EN"
 "http://www.w3.org/TR/2001/REC-SVG-20010904/DTD/svg10.dtd">
<svg version="1.0" xmlns="http://www.w3.org/2000/svg"
 width="294.000000pt" height="466.000000pt" viewBox="0 0 294.000000 466.000000"
 preserveAspectRatio="xMidYMid meet">
<metadata>
Created by potrace 1.15, written by Peter Selinger 2001-2017
</metadata>
<g transform="translate(0.000000,466.000000) scale(0.100000,-0.100000)"
fill="#000000" stroke="none">
<path d="M1357 4550 c-45 -14 -94 -57 -124 -108 -31 -53 -28 10 -52 -1017 -16
-635 -30 -1011 -40 -1037 -9 -22 -9 -22 -17 -3 -13 30 -11 488 5 965 16 478
11 554 -37 650 -37 73 -76 93 -197 98 -86 4 -92 3 -122 -22 -74 -63 -94 -232
-113 -966 -11 -400 -23 -641 -36 -673 -21 -56 -25 27 -18 453 8 518 8 517 -65
583 -82 74 -189 86 -277 31 -59 -36 -84 -70 -95 -125 -13 -68 -39 -861 -56
-1714 -9 -430 12 -586 101 -770 82 -170 257 -374 439 -511 249 -188 575 -284
872 -256 286 27 515 132 713 326 101 98 157 175 219 301 81 163 89 193 182
706 152 834 201 1151 201 1287 0 71 -3 83 -29 119 -37 51 -74 78 -130 93 -103
27 -220 -38 -270 -150 -27 -61 -84 -301 -181 -754 -44 -208 -83 -383 -86 -387
-3 -5 -47 -9 -98 -9 -278 0 -537 -164 -665 -421 -27 -53 -54 -124 -61 -156
-25 -129 -59 -195 -61 -120 -3 109 14 183 66 286 86 171 242 321 418 401 68
31 193 60 255 60 49 0 87 28 96 71 3 18 11 199 16 403 6 204 19 611 30 905 23
603 25 808 9 880 -8 39 -20 59 -58 94 -112 105 -221 118 -298 35 -32 -34 -70
-124 -82 -193 -10 -61 -22 -355 -42 -1095 -6 -223 -15 -413 -21 -423 -5 -10
-13 -15 -19 -12 -12 8 -12 358 1 745 30 912 30 1168 0 1280 -16 59 -52 105
-102 131 -46 23 -129 33 -171 19z"/>
</g>
</svg>
